<?xml version="1.0" encoding="utf-8"?>
<!-- Generator: Adobe Illustrator 27.5.0, SVG Export Plug-In . SVG Version: 6.00 Build 0)  -->
<svg version="1.1" xmlns="http://www.w3.org/2000/svg" xmlns:xlink="http://www.w3.org/1999/xlink" x="0px" y="0px"
	 viewBox="0 0 500 500" style="enable-background:new 0 0 500 500;" xml:space="preserve">
<g id="BACKGROUND">
	<rect style="fill:#A7CDE0;" width="500" height="500"/>
</g>
<g id="OBJECTS">
	<g>
		<defs>
			<rect id="SVGID_1_" width="500" height="500"/>
		</defs>
		<clipPath id="SVGID_00000098905846085325047580000010930100430431169711_">
			<use xlink:href="#SVGID_1_"  style="overflow:visible;"/>
		</clipPath>
		<g style="clip-path:url(#SVGID_00000098905846085325047580000010930100430431169711_);">
			<g>
				
					<ellipse transform="matrix(0.7071 -0.7071 0.7071 0.7071 -37.287 97.5193)" style="fill:#2482B2;" cx="99.073" cy="93.769" rx="67.168" ry="67.168"/>
				
					<ellipse transform="matrix(0.9821 -0.1884 0.1884 0.9821 -15.8954 20.3499)" style="fill:#F2F2F2;" cx="99.073" cy="93.769" rx="56.186" ry="56.186"/>
				<circle style="fill:#E6E6E6;" cx="99.073" cy="93.769" r="20.975"/>
			</g>
			<g>
				
					<rect x="83.831" y="80.149" transform="matrix(0.8197 -0.5727 0.5727 0.8197 -26.2657 80.7631)" style="fill:#464B4C;" width="62.673" height="3.916"/>
				
					<rect x="85.39" y="64.736" transform="matrix(0.5509 -0.8346 0.8346 0.5509 -32.4115 111.9193)" style="fill:#464B4C;" width="4.787" height="42.678"/>
			</g>
		</g>
		<g style="clip-path:url(#SVGID_00000098905846085325047580000010930100430431169711_);">
			<g>
				
					<rect x="15.821" y="308.289" transform="matrix(0.2063 -0.9785 0.9785 0.2063 -257.3046 310.3881)" style="fill:#464B4C;" width="93.71" height="11.024"/>
				<polygon style="fill:#FFFFFF;" points="77.763,268.977 75.762,251.755 66.976,266.701 				"/>
				<polygon style="fill:#464B4C;" points="71.333,259.291 75.762,251.755 76.772,260.438 				"/>
			</g>
			<g>
				<polygon style="fill:#2482B2;" points="27.635,346.224 38.616,345.25 31.085,265.683 20.105,266.656 				"/>
				<polygon style="fill:#FFFFFF;" points="31.075,265.565 24.134,249.678 20.094,266.539 				"/>
				<polygon style="fill:#2482B2;" points="22.098,258.179 24.134,249.678 27.635,257.688 				"/>
			</g>
			<g>
				
					<rect x="2.976" y="317.694" transform="matrix(0.0644 -0.9979 0.9979 0.0644 -275.9134 352.1227)" style="fill:#6B7375;" width="93.71" height="11.025"/>
				<polygon style="fill:#FFFFFF;" points="58.354,276.685 53.91,259.927 47.352,275.976 				"/>
				<polygon style="fill:#6B7375;" points="50.606,268.018 53.91,259.927 56.15,268.376 				"/>
			</g>
			<g>
				<polygon style="fill:#FF8C00;" points="28.248,342.441 39.246,343.191 44.74,267.575 33.741,266.826 				"/>
				<polygon style="fill:#FFFFFF;" points="44.747,267.456 40.362,250.682 33.747,266.709 				"/>
				<polygon style="fill:#FF8C00;" points="37.029,258.762 40.362,250.682 42.575,259.141 				"/>
			</g>
			<polygon style="fill:#E6E6E6;" points="31.044,375.157 63.661,375.157 73.287,310.477 20.768,310.477 			"/>
			<polygon style="fill:#CCCCCC;" points="19.939,316.281 73.839,316.281 75.498,305.501 18.28,305.501 			"/>
		</g>
		<g style="clip-path:url(#SVGID_00000098905846085325047580000010930100430431169711_);">
			<g>
				<path style="fill:#6B7375;" d="M283.224,320.772h-28.215h-5.126h-28.215c0,0,4.774,38.835-39.788,43.404
					c-2.888,0.296-5.094,2.72-5.094,5.624l0,0c0,3.124,2.533,5.657,5.658,5.657h140.005c3.125,0,5.657-2.533,5.657-5.657l0,0
					c0-2.904-2.206-5.328-5.094-5.624C278.449,359.607,283.224,320.772,283.224,320.772z"/>
				<g>
					<path style="fill:#FFFFFF;" d="M396.707,297.454c0,16.864-13.669,30.533-30.531,30.533h-227.46
						c-16.863,0-30.534-13.669-30.534-30.533V152.431c0-16.863,13.671-30.534,30.534-30.534h227.46
						c16.862,0,30.531,13.67,30.531,30.534V297.454z"/>
					<path style="fill:#CCCCCC;" d="M366.176,135.637h-227.46c-9.26,0-16.794,7.533-16.794,16.793v117.545
						c0,9.26,7.534,16.794,16.794,16.794h227.46c9.26,0,16.794-7.534,16.794-16.794V152.431
						C382.97,143.17,375.435,135.637,366.176,135.637z"/>
				</g>
				<g>
					
						<path style="fill:none;stroke:#509AC1;stroke-width:4.3205;stroke-linecap:round;stroke-linejoin:round;stroke-miterlimit:10;" d="
						M261.606,306.863c0,5.06-4.1,9.159-9.16,9.159c-5.06,0-9.159-4.1-9.159-9.159s4.099-9.162,9.159-9.162
						C257.506,297.701,261.606,301.804,261.606,306.863z"/>
				</g>
			</g>
			<g>
				<rect x="250.996" y="175.342" style="fill:#D0D5D6;" width="118.878" height="89.684"/>
				<path style="fill:#509AC1;" d="M369.874,176.471H250.996v-4.108c0-2.338,1.895-4.233,4.233-4.233h110.412
					c2.338,0,4.232,1.895,4.232,4.233V176.471z"/>
				<path style="fill:#E6E6E6;" d="M364.769,260.405h-3.935c-1.173,0-2.123-0.95-2.123-2.123V181.66c0-1.172,0.95-2.123,2.123-2.123
					h3.935c1.173,0,2.123,0.95,2.123,2.123v76.622C366.892,259.455,365.941,260.405,364.769,260.405z"/>
				<path style="fill:#FFFFFF;" d="M363.091,210.141h-0.579c-1.172,0-2.123-0.951-2.123-2.123v-21.726
					c0-1.172,0.951-2.123,2.123-2.123h0.579c1.172,0,2.123,0.951,2.123,2.123v21.726
					C365.214,209.19,364.263,210.141,363.091,210.141z"/>
			</g>
			<g>
				<rect x="159.294" y="153.458" style="fill:#E6E6E6;" width="186.314" height="124.405"/>
				<rect x="190.951" y="146.247" style="fill:#2482B2;" width="115.59" height="131.616"/>
				<g style="opacity:0.5;">
					
						<line style="fill:none;stroke:#568A96;stroke-width:0.5418;stroke-linecap:round;stroke-linejoin:round;stroke-miterlimit:10;" x1="304.157" y1="179.734" x2="301.267" y2="182.624"/>
					
						<line style="fill:none;stroke:#568A96;stroke-width:0.5418;stroke-linecap:round;stroke-linejoin:round;stroke-miterlimit:10;" x1="304.157" y1="182.624" x2="301.267" y2="179.734"/>
				</g>
				<g>
					<g>
						<path style="fill:#FF8C00;" d="M269.759,270.711c0,1.398-1.395,2.533-3.114,2.533h-33.577c-1.72,0-3.114-1.135-3.114-2.533
							v-6.121c0-1.399,1.395-2.533,3.114-2.533h33.577c1.72,0,3.114,1.134,3.114,2.533V270.711z"/>
						<rect x="234.606" y="265.49" style="fill:none;" width="30.5" height="4.723"/>
						
							<text transform="matrix(1 0 0 1 235.1978 269.562)" style="fill:#FFFFFF; font-family:'Montserrat-Bold'; font-size:5.488px;">register</text>
					</g>
					<rect x="200.704" y="242.651" style="fill:#FFFFFF;" width="96.084" height="13.004"/>
					<g>
						<rect x="200.704" y="242.651" style="fill:#A7CDE0;" width="16.978" height="13.004"/>
						<g>
							<g>
								<path style="fill:#FFFFFF;" d="M209.192,246.571c0.511,0,0.927,0.456,0.927,1.016v1.333h-1.854v-1.333
									C208.265,247.027,208.681,246.571,209.192,246.571 M209.192,245.824c-0.925,0-1.675,0.79-1.675,1.764v2.081h3.349v-2.081
									C210.867,246.613,210.117,245.824,209.192,245.824L209.192,245.824z"/>
							</g>
							<path style="fill:#FFFFFF;" d="M211.577,248.755h-4.769c-0.079,0-0.144,0.071-0.144,0.157v3.979
								c0,0.087,0.065,0.157,0.144,0.157h4.769c0.079,0,0.144-0.07,0.144-0.157v-3.979
								C211.721,248.826,211.656,248.755,211.577,248.755z M209.673,251.98h-0.962l0.197-1.123
								c-0.149-0.101-0.254-0.268-0.254-0.469c0-0.313,0.241-0.566,0.539-0.566c0.297,0,0.538,0.254,0.538,0.566
								c0,0.201-0.104,0.369-0.254,0.469L209.673,251.98z"/>
						</g>
					</g>
					<rect x="221.835" y="247.97" style="fill:none;" width="41.721" height="6.894"/>
					
						<text transform="matrix(1 0 0 1 221.8354 251.9097)" style="fill:#AFAFAF; font-family:'Montserrat-Medium'; font-size:5.3074px;">Password</text>
					<rect x="200.704" y="223.506" style="fill:#FFFFFF;" width="96.084" height="13.004"/>
					<rect x="221.835" y="228.092" style="fill:none;" width="39.96" height="6.6"/>
					
						<text transform="matrix(1 0 0 1 221.8354 232.0293)" style="fill:#AFAFAF; font-family:'Montserrat-Medium'; font-size:5.3074px;">Username</text>
					<g>
						<rect x="200.704" y="223.506" style="fill:#A7CDE0;" width="16.978" height="13.004"/>
						<g>
							<path style="fill:#FFFFFF;" d="M210.935,228.123c0,0.954-0.78,1.727-1.743,1.727c-0.962,0-1.744-0.773-1.744-1.727
								c0-0.954,0.781-1.727,1.744-1.727C210.155,226.396,210.935,227.169,210.935,228.123z"/>
							<path style="fill:#FFFFFF;" d="M206.664,233.62v-1.783c0-1.221,0.999-2.211,2.231-2.211h0.595
								c1.232,0,2.231,0.99,2.231,2.211v1.783"/>
						</g>
					</g>
					<rect x="200.704" y="203.574" style="fill:#FFFFFF;" width="96.084" height="13.004"/>
					<rect x="221.835" y="208.159" style="fill:none;" width="39.96" height="6.601"/>
					
						<text transform="matrix(1 0 0 1 221.8354 212.0977)" style="fill:#AFAFAF; font-family:'Montserrat-Medium'; font-size:5.3074px;">Address</text>
					<g>
						<rect x="200.704" y="203.574" style="fill:#A7CDE0;" width="16.978" height="13.004"/>
						<polygon style="fill:#FFFFFF;" points="212.113,209.516 211.157,208.864 211.157,206.955 209.975,206.955 209.975,208.058 
							208.77,207.236 205.427,209.516 206.033,209.516 206.033,213.587 207.807,213.587 207.807,210.981 209.733,210.981 
							209.733,213.587 211.507,213.587 211.507,209.516 						"/>
					</g>
					<rect x="200.704" y="183.641" style="fill:#FFFFFF;" width="96.084" height="13.004"/>
					<rect x="221.835" y="188.227" style="fill:none;" width="63.757" height="7.663"/>
					
						<text transform="matrix(1 0 0 1 221.8354 192.165)" style="fill:#AFAFAF; font-family:'Montserrat-Medium'; font-size:5.3074px;">Name Last Name</text>
					<g>
						<rect x="200.704" y="183.641" style="fill:#A7CDE0;" width="16.978" height="13.004"/>
						<g>
							<path style="fill:#FFFFFF;" d="M210.935,188.258c0,0.954-0.78,1.727-1.743,1.727c-0.962,0-1.744-0.773-1.744-1.727
								c0-0.955,0.781-1.727,1.744-1.727C210.155,186.531,210.935,187.304,210.935,188.258z"/>
							<path style="fill:#FFFFFF;" d="M206.664,193.755v-1.783c0-1.221,0.999-2.212,2.231-2.212h0.595
								c1.232,0,2.231,0.99,2.231,2.212v1.783"/>
						</g>
					</g>
					<rect x="221.797" y="164.616" style="fill:none;" width="67.19" height="6.663"/>
					
						<text transform="matrix(1 0 0 1 221.7974 170.1289)" style="fill:#FFFFFF; font-family:'Montserrat-Bold'; font-size:7.4303px;">Registration</text>
					<g>
						<path style="fill:#FFFFFF;" d="M218.875,167.947c0,5.018-4.068,9.086-9.086,9.086c-5.018,0-9.085-4.068-9.085-9.086
							c0-5.018,4.068-9.085,9.085-9.085C214.807,158.861,218.875,162.929,218.875,167.947z"/>
						<path style="fill-rule:evenodd;clip-rule:evenodd;fill:#FF8C00;" d="M214.307,172.31c-3.01,0-6.007,0-9.035,0
							c0.048-0.292,0.094-0.58,0.144-0.867c0.057-0.329,0.142-0.656,0.172-0.987c0.03-0.329,0.2-0.553,0.468-0.683
							c0.496-0.239,1.003-0.458,1.518-0.653c0.304-0.115,0.631-0.171,0.951-0.243c0.111-0.025,0.143-0.075,0.174-0.184
							c0.107-0.373,0.055-0.637-0.297-0.887c-0.403-0.288-0.611-0.753-0.768-1.217c-0.48-0.032-0.744-0.41-0.592-0.862
							c0.036-0.105,0.129-0.229,0.227-0.269c0.156-0.063,0.166-0.158,0.167-0.294c0.005-0.729,0.151-1.421,0.602-2.015
							c0.932-1.229,2.821-1.127,3.637,0.192c0.346,0.559,0.466,1.178,0.469,1.825c0.001,0.138,0.018,0.228,0.168,0.294
							c0.098,0.042,0.214,0.171,0.22,0.268c0.013,0.205-0.012,0.422-0.076,0.618c-0.051,0.158-0.219,0.219-0.391,0.24
							c-0.056,0.007-0.136,0.06-0.155,0.11c-0.21,0.556-0.531,1.025-1.027,1.366c-0.04,0.028-0.072,0.105-0.067,0.155
							c0.016,0.179,0.038,0.36,0.084,0.532c0.015,0.055,0.11,0.11,0.177,0.125c0.751,0.162,1.481,0.38,2.167,0.732
							c0.114,0.059,0.224,0.127,0.332,0.197c0.238,0.154,0.377,0.357,0.417,0.656c0.073,0.547,0.189,1.089,0.285,1.634
							C214.289,172.161,214.295,172.23,214.307,172.31z"/>
					</g>
				</g>
				<path style="fill:#509AC1;" d="M346.337,154.587H159.294v-4.095c0-2.345,1.901-4.246,4.246-4.246h178.551
					c2.345,0,4.246,1.901,4.246,4.246V154.587z"/>
				<path style="fill:#F2F2F2;" d="M340.503,273.244h-3.936c-1.172,0-2.123-0.951-2.123-2.123V159.777
					c0-1.172,0.951-2.123,2.123-2.123h3.936c1.172,0,2.122,0.951,2.122,2.123v111.344
					C342.625,272.293,341.675,273.244,340.503,273.244z"/>
				<path style="fill:#D0D5D6;" d="M338.824,188.258h-0.578c-1.173,0-2.123-0.95-2.123-2.123v-21.726
					c0-1.172,0.95-2.123,2.123-2.123h0.578c1.173,0,2.123,0.95,2.123,2.123v21.726C340.947,187.308,339.997,188.258,338.824,188.258
					z"/>
			</g>
		</g>
		<g style="clip-path:url(#SVGID_00000098905846085325047580000010930100430431169711_);">
			<g>
				<g>
					<g>
						<path style="fill:#6B7375;" d="M462.833,345.272V197.896c0-6.617,5.384-12.001,12.002-12.001
							c6.618,0,12.002,5.384,12.002,12.001v147.376c0,6.62-5.384,12.005-12.002,12.005
							C468.217,357.277,462.833,351.893,462.833,345.272z M468.083,197.896v147.376c0,3.724,3.029,6.751,6.752,6.751
							c3.722,0,6.75-3.027,6.75-6.751V197.896c0-3.722-3.028-6.751-6.75-6.751C471.112,191.145,468.083,194.174,468.083,197.896z"/>
					</g>
					<g>
						<path style="fill:#6B7375;" d="M466.564,207.869l-99.139-91.822c-5.005-4.331-5.553-11.925-1.222-16.93
							c4.33-5.005,11.924-5.554,16.929-1.221l99.139,91.819c5.002,4.33,5.554,11.925,1.222,16.93
							C479.163,211.648,471.567,212.197,466.564,207.869z M370.862,112.076L470,203.896c2.815,2.436,7.088,2.128,9.522-0.687
							c2.436-2.814,2.13-7.086-0.688-9.521l-99.138-91.823c-2.815-2.435-7.088-2.127-9.522,0.688
							C367.738,105.369,368.047,109.641,370.862,112.076z"/>
					</g>
				</g>
				<path style="fill:#FF8C00;" d="M421.39,374.966c-6.591-24.74,30.237-29.227,52.371-29.227c22.133,0,50.604,4.487,52.37,29.227
					H421.39z"/>
			</g>
			<path style="fill:#6B7375;" d="M341.688,76.185c1.318-1.425,3.541-1.509,4.966-0.192l23.685,21.927
				c-1.444,1.85-2.934,3.665-4.455,5.453L341.88,81.149C340.455,79.832,340.368,77.607,341.688,76.185z"/>
			<path style="fill:#FF8C00;" d="M315.143,83.401l13.989-16.859c6.789-8.18,18.925-9.309,27.105-2.521
				c8.18,6.789,9.309,18.926,2.52,27.106l-14.235,17.153c23.475,30.043,0.891,50.98,0.891,50.98l-80.645-66.924
				C264.767,92.337,280.448,64.355,315.143,83.401z"/>
		</g>
		<path style="clip-path:url(#SVGID_00000098905846085325047580000010930100430431169711_);fill:#2482B2;" d="M51.165,331.898
			c0,21.638,29.13,27.892,30.924,27.604l2.408,15.655h43.057l11.481-74.632h-66.02l1.858,12.074
			C59.247,313.283,51.165,319.197,51.165,331.898z M58.542,331.853c0-8.932,5.393-11.731,17.459-11.926l4.966,32.282
			C79.525,352.44,58.542,348.024,58.542,331.853z"/>
		<g style="clip-path:url(#SVGID_00000098905846085325047580000010930100430431169711_);">
			<g>
				<polygon style="fill:#464B4C;" points="-29.958,539 -29.958,431.41 487.87,431.41 487.87,539 502.28,539 502.28,417 
					-44.369,417 -44.369,539 				"/>
			</g>
			<g>
				<rect x="-57.426" y="392.52" style="fill:#509AC1;" width="572.763" height="25.539"/>
				<rect x="-57.426" y="388.65" style="opacity:0.1;" width="572.763" height="14.365"/>
				<rect x="-74.988" y="373.461" style="fill:#FFFFFF;" width="607.887" height="20.433"/>
			</g>
			<g>
				<g>
					<rect x="-29.364" y="430.965" style="fill:#FFFFFF;" width="186.113" height="108.035"/>
					<rect x="-29.364" y="430.965" style="opacity:0.1;" width="186.113" height="13.15"/>
				</g>
				<rect x="-15.104" y="458.481" style="fill:#509AC1;" width="157.595" height="64.007"/>
				<rect x="-15.104" y="467.973" style="fill:#A7CDE0;" width="157.595" height="39.529"/>
				<path style="fill:#2482B2;" d="M90.661,487.737c0,2.459-1.995,4.454-4.454,4.454H40.178c-2.46,0-4.455-1.995-4.455-4.454l0,0
					c0-2.459,1.995-4.454,4.455-4.454h46.028C88.666,483.283,90.661,485.278,90.661,487.737L90.661,487.737z"/>
			</g>
		</g>
	</g>
</g>
<g id="DESIGNED_BY_FREEPIK">
	<g>
		<g id="XMLID_319_">
			<g id="XMLID_338_">
				<path id="XMLID_346_" style="fill:#1D262D;" d="M260.104,465.466c-0.433,0.442-0.804,0.931-1.108,1.453l-0.466-0.241
					c-0.066-0.298-0.349-0.503-0.658-0.467c-0.331,0.039-0.568,0.339-0.529,0.67c0.039,0.331,0.339,0.568,0.67,0.529
					c0.065-0.008,0.127-0.026,0.184-0.053l0.451,0.234c-0.251,0.554-0.433,1.139-0.539,1.744l0.746,0.131
					c0.23-1.306,0.85-2.506,1.792-3.472L260.104,465.466z"/>
				<path id="XMLID_345_" style="fill:#1D262D;" d="M265.592,463.163c-0.171,0-0.341,0.007-0.51,0.018l-0.073-0.626
					c0.188-0.149,0.296-0.39,0.266-0.645c-0.046-0.394-0.402-0.675-0.796-0.629c-0.393,0.047-0.674,0.402-0.628,0.796
					c0.03,0.254,0.189,0.461,0.405,0.564l0.073,0.624c-0.714,0.116-1.403,0.332-2.06,0.647l0.327,0.684
					c0.934-0.447,1.941-0.673,2.995-0.673c0.496,0,0.993,0.053,1.475,0.157l0.161-0.741
					C266.692,463.223,266.143,463.163,265.592,463.163z"/>
				<path id="XMLID_344_" style="fill:#1D262D;" d="M272.194,465.711c0.331-0.041,0.566-0.342,0.525-0.673
					c-0.04-0.331-0.342-0.565-0.672-0.525c-0.31,0.038-0.535,0.304-0.53,0.608l-0.416,0.363c-0.418-0.43-0.89-0.813-1.408-1.139
					l-0.403,0.641c1.134,0.715,2.02,1.727,2.563,2.926l0.69-0.313c-0.251-0.555-0.567-1.072-0.942-1.545l0.402-0.352
					C272.064,465.716,272.129,465.719,272.194,465.711z"/>
				<path id="XMLID_343_" style="fill:#1D262D;" d="M265.044,473.372c-0.386,0.023-0.774,0.034-1.157,0.034
					c-0.88,0-1.732-0.061-2.478-0.179c-0.391-0.063-0.847-0.155-1.27-0.292c1.046,1.86,3.069,3.125,5.389,3.125
					c2.855,0,5.262-1.916,5.949-4.504c-0.682,0.449-1.506,0.825-2.459,1.123C267.839,473.047,266.464,473.286,265.044,473.372z"/>
				<path id="XMLID_339_" style="fill:#1D262D;" d="M265.592,464.68c-3.353,0-6.079,2.666-6.079,5.943
					c0,0.426,0.046,0.849,0.137,1.262c0.674,0.482,2.706,0.89,5.348,0.73c2.879-0.173,5.297-0.957,6.672-2.158
					c-0.005-0.195-0.02-0.391-0.045-0.582C271.244,466.913,268.65,464.68,265.592,464.68z M263.433,471.194
					c-1.021,0-1.85-0.83-1.85-1.85c0-1.021,0.829-1.85,1.85-1.85c1.02,0,1.85,0.829,1.85,1.85
					C265.282,470.364,264.452,471.194,263.433,471.194z M268.17,470.286c-0.75,0-1.36-0.61-1.36-1.36s0.61-1.36,1.36-1.36
					s1.36,0.61,1.36,1.36S268.92,470.286,268.17,470.286z"/>
			</g>
			<path id="XMLID_336_" style="fill:#1D262D;" d="M281.596,466.547c-0.295-0.116-0.806-0.309-1.383-0.237
				c-0.551,0.068-0.844,0.341-0.844,1.007v0.865h2.228v1.718h-2.228v5.454h-1.932v-5.454h-1.34v-1.718h1.34v-0.888
				c0-1.681,0.896-2.783,2.568-2.783c0.643,0,1.157,0.122,1.59,0.309V466.547z"/>
			<path id="XMLID_334_" style="fill:#1D262D;" d="M286.298,469.879c-0.177-0.03-0.357-0.047-0.526-0.047
				c-0.895,0-1.51,0.548-1.51,1.614v3.907h-1.932v-7.172h1.873v0.785c0.451-0.674,1.14-0.978,2.021-0.978
				c0.414,0,0.848,0.128,1.094,0.337L286.298,469.879z"/>
			<path id="XMLID_331_" style="fill:#1D262D;" d="M293.965,471.757c0,0.222-0.015,0.488-0.037,0.651h-5.084
				c0.207,1.036,0.933,1.487,1.843,1.487c0.621,0,1.295-0.251,1.814-0.688l1.132,1.243c-0.813,0.747-1.851,1.088-3.057,1.088
				c-2.198,0-3.723-1.495-3.723-3.753c0-2.257,1.481-3.797,3.626-3.797C292.544,467.989,293.958,469.522,293.965,471.757z
				 M288.851,471.091h3.175c-0.177-0.918-0.732-1.436-1.561-1.436C289.554,469.654,289.021,470.202,288.851,471.091z"/>
			<path id="XMLID_328_" style="fill:#1D262D;" d="M301.618,471.757c0,0.222-0.015,0.488-0.037,0.651h-5.084
				c0.207,1.036,0.933,1.487,1.843,1.487c0.621,0,1.295-0.251,1.814-0.688l1.132,1.243c-0.814,0.747-1.851,1.088-3.057,1.088
				c-2.198,0-3.723-1.495-3.723-3.753c0-2.257,1.48-3.797,3.626-3.797C300.197,467.989,301.611,469.522,301.618,471.757z
				 M296.504,471.091h3.176c-0.178-0.918-0.733-1.436-1.563-1.436C297.207,469.654,296.674,470.202,296.504,471.091z"/>
			<path id="XMLID_325_" style="fill:#1D262D;" d="M309.964,471.765c0,2.153-1.495,3.775-3.471,3.775
				c-0.963,0-1.644-0.378-2.109-0.933v3.708h-1.925v-10.133h1.888v0.792c0.466-0.584,1.154-0.984,2.139-0.984
				C308.469,467.989,309.964,469.61,309.964,471.765z M304.287,471.765c0,1.132,0.748,1.976,1.843,1.976
				c1.14,0,1.851-0.881,1.851-1.976c0-1.096-0.711-1.977-1.851-1.977C305.035,469.788,304.287,470.632,304.287,471.765z"/>
			<path id="XMLID_322_" style="fill:#1D262D;" d="M313.067,465.836c0,0.695-0.54,1.229-1.235,1.229c-0.696,0-1.23-0.533-1.23-1.229
				c0-0.696,0.533-1.244,1.23-1.244C312.527,464.592,313.067,465.14,313.067,465.836z M312.809,475.353h-1.932v-7.172h1.932V475.353
				z"/>
			<path id="XMLID_320_" style="fill:#1D262D;" d="M316.032,470.735l2.701-2.554h2.369l-3.479,3.375l3.501,3.797h-2.376
				l-2.716-2.901v2.901h-1.932v-10.657h1.932V470.735z"/>
		</g>
		<g>
			<path style="fill:#1D262D;" d="M184.413,475.289v-1.055c-0.527,0.718-1.392,1.23-2.388,1.23c-1.846,0-3.149-1.406-3.149-3.706
				c0-2.256,1.289-3.721,3.149-3.721c0.952,0,1.816,0.469,2.388,1.245v-3.765h1.099v9.771H184.413z M184.413,473.37v-3.208
				c-0.396-0.615-1.245-1.143-2.124-1.143c-1.421,0-2.27,1.172-2.27,2.739c0,1.567,0.85,2.725,2.27,2.725
				C183.167,474.483,184.017,473.985,184.413,473.37z"/>
			<path style="fill:#1D262D;" d="M186.932,471.744c0-2.051,1.464-3.706,3.486-3.706c2.139,0,3.398,1.67,3.398,3.794v0.278h-5.727
				c0.088,1.333,1.025,2.446,2.549,2.446c0.806,0,1.626-0.322,2.183-0.894l0.527,0.718c-0.703,0.703-1.655,1.084-2.813,1.084
				C188.44,475.465,186.932,473.956,186.932,471.744z M190.403,468.946c-1.509,0-2.256,1.274-2.314,2.358h4.643
				C192.718,470.25,192.015,468.946,190.403,468.946z"/>
			<path style="fill:#1D262D;" d="M194.607,474.352l0.571-0.791c0.469,0.542,1.362,1.011,2.329,1.011c1.084,0,1.67-0.513,1.67-1.216
				c0-1.714-4.38-0.659-4.38-3.281c0-1.099,0.952-2.036,2.637-2.036c1.201,0,2.051,0.454,2.622,1.025l-0.513,0.762
				c-0.424-0.513-1.201-0.894-2.109-0.894c-0.967,0-1.567,0.483-1.567,1.113c0,1.553,4.379,0.527,4.379,3.281
				c0,1.186-0.952,2.139-2.783,2.139C196.306,475.465,195.325,475.113,194.607,474.352z"/>
			<path style="fill:#1D262D;" d="M201.477,466.471c0-0.41,0.337-0.747,0.732-0.747c0.41,0,0.747,0.337,0.747,0.747
				c0,0.41-0.337,0.732-0.747,0.732C201.814,467.203,201.477,466.881,201.477,466.471z M201.667,475.289v-7.075h1.099v7.075H201.667
				z"/>
			<path style="fill:#1D262D;" d="M204.582,477.105l0.557-0.82c0.586,0.703,1.289,0.967,2.3,0.967c1.172,0,2.27-0.571,2.27-2.124
				v-1.011c-0.512,0.718-1.376,1.26-2.373,1.26c-1.845,0-3.149-1.377-3.149-3.662c0-2.271,1.289-3.677,3.149-3.677
				c0.952,0,1.802,0.469,2.373,1.245v-1.069h1.099v6.87c0,2.344-1.641,3.076-3.369,3.076
				C206.237,478.16,205.417,477.926,204.582,477.105z M209.708,473.253v-3.091c-0.381-0.615-1.23-1.143-2.109-1.143
				c-1.421,0-2.27,1.128-2.27,2.695c0,1.553,0.849,2.695,2.27,2.695C208.478,474.41,209.328,473.868,209.708,473.253z"/>
			<path style="fill:#1D262D;" d="M217.413,475.289v-4.629c0-1.245-0.629-1.641-1.582-1.641c-0.865,0-1.685,0.527-2.095,1.099v5.171
				h-1.099v-7.075h1.099v1.025c0.498-0.586,1.464-1.201,2.519-1.201c1.48,0,2.256,0.747,2.256,2.285v4.966H217.413z"/>
			<path style="fill:#1D262D;" d="M219.933,471.744c0-2.051,1.465-3.706,3.486-3.706c2.138,0,3.398,1.67,3.398,3.794v0.278h-5.728
				c0.088,1.333,1.025,2.446,2.549,2.446c0.806,0,1.626-0.322,2.183-0.894l0.527,0.718c-0.703,0.703-1.655,1.084-2.813,1.084
				C221.441,475.465,219.933,473.956,219.933,471.744z M223.404,468.946c-1.509,0-2.256,1.274-2.314,2.358h4.643
				C225.718,470.25,225.015,468.946,223.404,468.946z"/>
			<path style="fill:#1D262D;" d="M233.35,475.289v-1.055c-0.527,0.718-1.392,1.23-2.388,1.23c-1.845,0-3.149-1.406-3.149-3.706
				c0-2.256,1.289-3.721,3.149-3.721c0.952,0,1.817,0.469,2.388,1.245v-3.765h1.099v9.771H233.35z M233.35,473.37v-3.208
				c-0.396-0.615-1.245-1.143-2.124-1.143c-1.421,0-2.27,1.172-2.27,2.739c0,1.567,0.85,2.725,2.27,2.725
				C232.105,474.483,232.954,473.985,233.35,473.37z"/>
			<path style="fill:#1D262D;" d="M239.692,475.289v-9.771h1.099v3.765c0.572-0.776,1.421-1.245,2.388-1.245
				c1.846,0,3.149,1.465,3.149,3.721c0,2.3-1.304,3.706-3.149,3.706c-0.996,0-1.86-0.513-2.388-1.23v1.055H239.692z M242.9,474.483
				c1.436,0,2.285-1.157,2.285-2.725c0-1.567-0.85-2.739-2.285-2.739c-0.864,0-1.729,0.527-2.109,1.143v3.208
				C241.171,473.985,242.036,474.483,242.9,474.483z"/>
			<path style="fill:#1D262D;" d="M247.528,477.061c0.161,0.073,0.425,0.117,0.601,0.117c0.483,0,0.805-0.161,1.055-0.747
				l0.468-1.069l-2.959-7.148h1.187l2.358,5.801l2.344-5.801h1.201l-3.545,8.511c-0.425,1.025-1.143,1.421-2.08,1.436
				c-0.234,0-0.601-0.044-0.805-0.103L247.528,477.061z"/>
		</g>
	</g>
</g>
</svg>
